<?xml version="1.0" standalone="no"?>
<svg xmlns:xlink="http://www.w3.org/1999/xlink" id="wave" style="transform:rotate(0deg); transition: 0.3s" viewBox="0 0 1440 400" version="1.1" xmlns="http://www.w3.org/2000/svg"><defs><linearGradient id="sw-gradient-0" x1="0" x2="0" y1="1" y2="0"><stop stop-color="rgba(10, 110, 189, 1)" offset="0%"/><stop stop-color="rgba(49.572, 246.263, 225.605, 1)" offset="100%"/></linearGradient></defs><path style="transform:translate(0, 0px); opacity:1" fill="url(#sw-gradient-0)" d="M0,240L80,213.3C160,187,320,133,480,126.7C640,120,800,160,960,173.3C1120,187,1280,173,1440,153.3C1600,133,1760,107,1920,120C2080,133,2240,187,2400,186.7C2560,187,2720,133,2880,133.3C3040,133,3200,187,3360,220C3520,253,3680,267,3840,280C4000,293,4160,307,4320,306.7C4480,307,4640,293,4800,293.3C4960,293,5120,307,5280,280C5440,253,5600,187,5760,153.3C5920,120,6080,120,6240,100C6400,80,6560,40,6720,60C6880,80,7040,160,7200,166.7C7360,173,7520,107,7680,66.7C7840,27,8000,13,8160,53.3C8320,93,8480,187,8640,226.7C8800,267,8960,253,9120,266.7C9280,280,9440,320,9600,293.3C9760,267,9920,173,10080,160C10240,147,10400,213,10560,213.3C10720,213,10880,147,11040,140C11200,133,11360,187,11440,213.3L11520,240L11520,400L11440,400C11360,400,11200,400,11040,400C10880,400,10720,400,10560,400C10400,400,10240,400,10080,400C9920,400,9760,400,9600,400C9440,400,9280,400,9120,400C8960,400,8800,400,8640,400C8480,400,8320,400,8160,400C8000,400,7840,400,7680,400C7520,400,7360,400,7200,400C7040,400,6880,400,6720,400C6560,400,6400,400,6240,400C6080,400,5920,400,5760,400C5600,400,5440,400,5280,400C5120,400,4960,400,4800,400C4640,400,4480,400,4320,400C4160,400,4000,400,3840,400C3680,400,3520,400,3360,400C3200,400,3040,400,2880,400C2720,400,2560,400,2400,400C2240,400,2080,400,1920,400C1760,400,1600,400,1440,400C1280,400,1120,400,960,400C800,400,640,400,480,400C320,400,160,400,80,400L0,400Z"/></svg>