<?xml version="1.0" standalone="no"?>
<svg xmlns:xlink="http://www.w3.org/1999/xlink" id="wave" style="transform:rotate(0deg); transition: 0.3s" viewBox="0 0 1440 210" version="1.1" xmlns="http://www.w3.org/2000/svg"><defs><linearGradient id="sw-gradient-0" x1="0" x2="0" y1="1" y2="0"><stop stop-color="rgba(1, 108, 255, 1)" offset="0%"/><stop stop-color="rgba(131.964, 152.47, 255, 0.29)" offset="100%"/></linearGradient></defs><path style="transform:translate(0, 0px); opacity:1" fill="url(#sw-gradient-0)" d="M0,0L120,24.5C240,49,480,98,720,126C960,154,1200,161,1440,136.5C1680,112,1920,56,2160,59.5C2400,63,2640,126,2880,157.5C3120,189,3360,189,3600,189C3840,189,4080,189,4320,189C4560,189,4800,189,5040,168C5280,147,5520,105,5760,73.5C6000,42,6240,21,6480,17.5C6720,14,6960,28,7200,56C7440,84,7680,126,7920,122.5C8160,119,8400,70,8640,59.5C8880,49,9120,77,9360,101.5C9600,126,9840,147,10080,157.5C10320,168,10560,168,10800,157.5C11040,147,11280,126,11520,129.5C11760,133,12000,161,12240,164.5C12480,168,12720,147,12960,129.5C13200,112,13440,98,13680,105C13920,112,14160,140,14400,150.5C14640,161,14880,154,15120,154C15360,154,15600,161,15840,168C16080,175,16320,182,16560,164.5C16800,147,17040,105,17160,84L17280,63L17280,210L17160,210C17040,210,16800,210,16560,210C16320,210,16080,210,15840,210C15600,210,15360,210,15120,210C14880,210,14640,210,14400,210C14160,210,13920,210,13680,210C13440,210,13200,210,12960,210C12720,210,12480,210,12240,210C12000,210,11760,210,11520,210C11280,210,11040,210,10800,210C10560,210,10320,210,10080,210C9840,210,9600,210,9360,210C9120,210,8880,210,8640,210C8400,210,8160,210,7920,210C7680,210,7440,210,7200,210C6960,210,6720,210,6480,210C6240,210,6000,210,5760,210C5520,210,5280,210,5040,210C4800,210,4560,210,4320,210C4080,210,3840,210,3600,210C3360,210,3120,210,2880,210C2640,210,2400,210,2160,210C1920,210,1680,210,1440,210C1200,210,960,210,720,210C480,210,240,210,120,210L0,210Z"/></svg>